<svg width="306.62725830078125" height="76.77180433116774" viewBox="0 0 320 208.2858064469652" class="looka-1j8o68f" style="margin-left: -70px;"> <defs id="SvgjsDefs1123"> <linearGradient id="SvgjsLinearGradient1128"> <stop id="SvgjsStop1129" stop-color="#905e26" offset="0"></stop> <stop id="SvgjsStop1130" stop-color="#f5ec9b" offset="0.5"></stop> <stop id="SvgjsStop1131" stop-color="#905e26" offset="1"></stop> </linearGradient> <linearGradient id="SvgjsLinearGradient1132"> <stop id="SvgjsStop1133" stop-color="#905e26" offset="0"></stop> <stop id="SvgjsStop1134" stop-color="#f5ec9b" offset="0.5"></stop> <stop id="SvgjsStop1135" stop-color="#905e26" offset="1"></stop> </linearGradient> </defs> <g id="SvgjsG1124" featurekey="1p4tPl-0" transform="matrix(1.7547439079573417,0,0,1.7547439079573417,72.59502810064288,-10.570577596062964)" fill="url(#SvgjsLinearGradient1128)"> <path xmlns="http://www.w3.org/2000/svg" d="M52.094,93.749c0.001,0,11.108-7.41,0.883-22.909c-4.773-7.235-12.596-14.971-11.701-22.63  c-1.015,0.883-1.937,1.859-2.38,2.453c-1.618,2.169-2.791,4.529-3.392,6.964c-0.697,2.823-0.515,5.795,1.102,8.686  c1.501,2.683,4.107,5.103,6.558,7.537c5.868,5.826,11.036,12.018,9.461,18.607C52.541,92.811,52.5,93.478,52.094,93.749z"> </path> <path xmlns="http://www.w3.org/2000/svg" d="M59.398,79.14c0.001-0.001,17.835-11.897,1.417-36.782C53.152,30.742,40.592,18.321,42.03,6.024  c-1.365,1.194-3.11,2.985-3.821,3.939c-2.598,3.482-4.481,7.271-5.446,11.181c-1.12,4.533-0.827,9.304,1.77,13.946  c2.41,4.308,6.594,8.193,10.53,12.102c9.421,9.355,17.719,19.295,15.19,29.876C60.116,77.635,60.049,78.706,59.398,79.14z"> </path> </g> <g id="SvgjsG1125" featurekey="dYASrj-0" transform="matrix(2.254888436271332,0,0,2.254888436271332,-0.7711740128374172,162.7255631947163)" fill="url(#SvgjsLinearGradient1132)"> <path d="M13.555 10.332 l1.9629 0 l-3.3398 9.6777 l-1.709 0 l-2.5586 -7.2656 l-2.5684 7.2656 l-1.7188 0 l-3.2813 -9.6777 l1.9434 0 l2.3242 7.2266 l2.5684 -7.2266 l1.4453 0 l2.5684 7.2168 z M21.66994375 20.18555 c-2.8223 0 -4.9512 -1.9238 -4.9512 -5.0293 c0 -3.0957 2.1094 -5.0195 4.9512 -5.0195 s4.9414 1.9238 4.9414 5.0195 c0 3.1055 -2.1094 5.0293 -4.9414 5.0293 z M21.65034375 18.6426 c1.7676 0 3.1055 -1.3672 3.1055 -3.4863 c0 -2.1094 -1.3379 -3.4766 -3.1055 -3.4766 c-1.748 0 -3.0664 1.3672 -3.0664 3.4766 c0 2.1191 1.3184 3.4863 3.0664 3.4863 z M30.986334375 12.011700000000001 c0.46875 -1.0254 1.6895 -1.7773 3.0762 -1.7871 l0 1.7383 c-1.9141 0 -3.0176 0.80078 -3.0176 2.9492 l0 5.0879 l-1.875 0 l0 -9.668 l1.8164 0 l0 1.6797 z M36.005871875 20 l0 -15 l1.8848 0 l0 15 l-1.8848 0 z M48.3398125 5 l1.875 0 l0 15 l-1.8066 0 l-0.048828 -1.7578 c-0.5957 1.2109 -1.875 1.9629 -3.3496 1.9629 c-2.4902 0 -4.5508 -1.9531 -4.5508 -5.0391 c0 -3.0664 2.0703 -5.0293 4.5508 -5.0293 c1.4551 0 2.7246 0.73242 3.3301 1.9141 l0 -7.0508 z M45.4101125 18.6035 c1.7188 0 3.0566 -1.4551 3.0566 -3.4375 c0 -1.9727 -1.3477 -3.4277 -3.0566 -3.4277 s-3.0762 1.3477 -3.0762 3.4277 s1.3672 3.4375 3.0762 3.4375 z M59.76563125 20 l-3.5547 -4.4043 l-0.75195 0 l0 4.4043 l-1.8848 0 l0 -15 l1.8848 0 l0 9.1992 l0.69336 0 l3.3008 -3.8672 l2.1973 0 l-3.877 4.4238 l4.3652 5.2441 l-2.373 0 z M64.92185625 8.193 c-0.66406 0 -1.2305 -0.54688 -1.2305 -1.2207 s0.56641 -1.2109 1.2305 -1.2109 c0.6543 0 1.2109 0.53711 1.2109 1.2109 s-0.55664 1.2207 -1.2109 1.2207 z M63.96485625 20 l0 -9.668 l1.8848 0 l0 9.668 l-1.8848 0 z M73.974596875 10.1367 c2.041 0 3.3887 1.1816 3.3887 3.3496 l0 6.5137 l-1.8848 0 l0 -6.0938 c0 -1.5918 -0.94727 -2.207 -2.041 -2.207 c-1.2891 0 -2.3438 0.78125 -2.3535 2.5879 l0 5.7129 l-1.875 0 l0 -9.668 l1.875 0 l0 1.1914 c0.625 -0.87891 1.6406 -1.3867 2.8906 -1.3867 z M87.626921875 5 l1.875 0 l0 15 l-1.8066 0 l-0.048828 -1.7578 c-0.5957 1.2109 -1.875 1.9629 -3.3496 1.9629 c-2.4902 0 -4.5508 -1.9531 -4.5508 -5.0391 c0 -3.0664 2.0703 -5.0293 4.5508 -5.0293 c1.4551 0 2.7246 0.73242 3.3301 1.9141 l0 -7.0508 z M84.697221875 18.6035 c1.7188 0 3.0566 -1.4551 3.0566 -3.4375 c0 -1.9727 -1.3477 -3.4277 -3.0566 -3.4277 s-3.0762 1.3477 -3.0762 3.4277 s1.3672 3.4375 3.0762 3.4375 z M99.873053125 12.011700000000001 c0.46875 -1.0254 1.6895 -1.7773 3.0762 -1.7871 l0 1.7383 c-1.9141 0 -3.0176 0.80078 -3.0176 2.9492 l0 5.0879 l-1.875 0 l0 -9.668 l1.8164 0 l0 1.6797 z M113.466890625 14.9805 l-0.029297 0.49805 l-7.4902 0 c0.068359 2.1387 1.416 3.1738 3.0176 3.1738 c1.1523 0 2.1094 -0.625 2.5977 -1.6699 l1.6992 0.33203 c-0.68359 1.7969 -2.3145 2.8711 -4.2773 2.8711 c-2.8711 0 -4.873 -1.8555 -4.873 -5.0195 s2.0508 -5.0293 4.8145 -5.0293 c2.627 0 4.5313 1.582 4.541 4.8438 z M108.935590625 11.5625 c-1.4941 0 -2.6172 0.80078 -2.9102 2.4902 l5.5566 0 c-0.15625 -1.6797 -1.2207 -2.4902 -2.6465 -2.4902 z M116.025403125 20 l0 -15 l1.8848 0 l0 15 l-1.8848 0 z M122.22654375 8.193 c-0.66406 0 -1.2305 -0.54688 -1.2305 -1.2207 s0.56641 -1.2109 1.2305 -1.2109 c0.6543 0 1.2109 0.53711 1.2109 1.2109 s-0.55664 1.2207 -1.2109 1.2207 z M121.26954375 20 l0 -9.668 l1.8848 0 l0 9.668 l-1.8848 0 z M135.087984375 14.9805 l-0.029297 0.49805 l-7.4902 0 c0.068359 2.1387 1.416 3.1738 3.0176 3.1738 c1.1523 0 2.1094 -0.625 2.5977 -1.6699 l1.6992 0.33203 c-0.68359 1.7969 -2.3145 2.8711 -4.2773 2.8711 c-2.8711 0 -4.873 -1.8555 -4.873 -5.0195 s2.0508 -5.0293 4.8145 -5.0293 c2.627 0 4.5313 1.582 4.541 4.8438 z M130.556684375 11.5625 c-1.4941 0 -2.6172 0.80078 -2.9102 2.4902 l5.5566 0 c-0.15625 -1.6797 -1.2207 -2.4902 -2.6465 -2.4902 z M142.255896875 6.553000000000001 c-1.0645 0 -2.2168 -0.019531 -2.2168 1.9434 l0 1.8359 l2.2168 0 l0 1.4746 l-2.2168 0 l0 8.1934 l-1.8652 0 l0 -8.1934 l-1.8652 0 l0 -1.4746 l1.8652 0 l0 -1.8652 c0 -3.0273 1.7188 -3.4668 4.082 -3.4668 l0 1.5527 z"> </path> </g> </svg>